<mxfile host="Electron" modified="2023-04-07T16:29:47.033Z" agent="Mozilla/5.0 (Windows NT 10.0; Win64; x64) AppleWebKit/537.36 (KHTML, like Gecko) draw.io/21.1.2 Chrome/106.0.5249.199 Electron/21.4.3 Safari/537.36" etag="siSXDSZZFWw2PuGofSnr" version="21.1.2" type="device">
  <diagram id="C5RBs43oDa-KdzZeNtuy" name="Page-1">
    <mxGraphModel dx="782" dy="376" grid="1" gridSize="10" guides="1" tooltips="1" connect="1" arrows="1" fold="1" page="1" pageScale="1" pageWidth="827" pageHeight="1169" math="0" shadow="0">
      <root>
        <mxCell id="WIyWlLk6GJQsqaUBKTNV-0" />
        <mxCell id="WIyWlLk6GJQsqaUBKTNV-1" parent="WIyWlLk6GJQsqaUBKTNV-0" />
        <mxCell id="CcFHpQs5ojroJ-u2KoMF-0" value="ComptageVelo" style="swimlane;fontStyle=0;childLayout=stackLayout;horizontal=1;startSize=26;fillColor=none;horizontalStack=0;resizeParent=1;resizeParentMax=0;resizeLast=0;collapsible=1;marginBottom=0;" parent="WIyWlLk6GJQsqaUBKTNV-1" vertex="1">
          <mxGeometry x="133" y="170" width="257" height="832" as="geometry" />
        </mxCell>
        <mxCell id="CcFHpQs5ojroJ-u2KoMF-1" value="+ boucle_num : int (1)" style="text;strokeColor=none;fillColor=none;align=left;verticalAlign=top;spacingLeft=4;spacingRight=4;overflow=hidden;rotatable=0;points=[[0,0.5],[1,0.5]];portConstraint=eastwest;" parent="CcFHpQs5ojroJ-u2KoMF-0" vertex="1">
          <mxGeometry y="26" width="257" height="26" as="geometry" />
        </mxCell>
        <mxCell id="CcFHpQs5ojroJ-u2KoMF-2" value="+ libelle : string (NN)" style="text;strokeColor=none;fillColor=none;align=left;verticalAlign=top;spacingLeft=4;spacingRight=4;overflow=hidden;rotatable=0;points=[[0,0.5],[1,0.5]];portConstraint=eastwest;" parent="CcFHpQs5ojroJ-u2KoMF-0" vertex="1">
          <mxGeometry y="52" width="257" height="26" as="geometry" />
        </mxCell>
        <mxCell id="CcFHpQs5ojroJ-u2KoMF-3" value="+ jour : date (NN)" style="text;strokeColor=none;fillColor=none;align=left;verticalAlign=top;spacingLeft=4;spacingRight=4;overflow=hidden;rotatable=0;points=[[0,0.5],[1,0.5]];portConstraint=eastwest;" parent="CcFHpQs5ojroJ-u2KoMF-0" vertex="1">
          <mxGeometry y="78" width="257" height="26" as="geometry" />
        </mxCell>
        <mxCell id="CcFHpQs5ojroJ-u2KoMF-8" value="+ 00 : int" style="text;strokeColor=none;fillColor=none;align=left;verticalAlign=top;spacingLeft=4;spacingRight=4;overflow=hidden;rotatable=0;points=[[0,0.5],[1,0.5]];portConstraint=eastwest;" parent="CcFHpQs5ojroJ-u2KoMF-0" vertex="1">
          <mxGeometry y="104" width="257" height="26" as="geometry" />
        </mxCell>
        <mxCell id="CcFHpQs5ojroJ-u2KoMF-34" value="+ 01 : int" style="text;strokeColor=none;fillColor=none;align=left;verticalAlign=top;spacingLeft=4;spacingRight=4;overflow=hidden;rotatable=0;points=[[0,0.5],[1,0.5]];portConstraint=eastwest;" parent="CcFHpQs5ojroJ-u2KoMF-0" vertex="1">
          <mxGeometry y="130" width="257" height="26" as="geometry" />
        </mxCell>
        <mxCell id="CcFHpQs5ojroJ-u2KoMF-35" value="+ 02 : int" style="text;strokeColor=none;fillColor=none;align=left;verticalAlign=top;spacingLeft=4;spacingRight=4;overflow=hidden;rotatable=0;points=[[0,0.5],[1,0.5]];portConstraint=eastwest;" parent="CcFHpQs5ojroJ-u2KoMF-0" vertex="1">
          <mxGeometry y="156" width="257" height="26" as="geometry" />
        </mxCell>
        <mxCell id="CcFHpQs5ojroJ-u2KoMF-39" value="+ 03 : int" style="text;strokeColor=none;fillColor=none;align=left;verticalAlign=top;spacingLeft=4;spacingRight=4;overflow=hidden;rotatable=0;points=[[0,0.5],[1,0.5]];portConstraint=eastwest;" parent="CcFHpQs5ojroJ-u2KoMF-0" vertex="1">
          <mxGeometry y="182" width="257" height="26" as="geometry" />
        </mxCell>
        <mxCell id="CcFHpQs5ojroJ-u2KoMF-37" value="+ 04 : int" style="text;strokeColor=none;fillColor=none;align=left;verticalAlign=top;spacingLeft=4;spacingRight=4;overflow=hidden;rotatable=0;points=[[0,0.5],[1,0.5]];portConstraint=eastwest;" parent="CcFHpQs5ojroJ-u2KoMF-0" vertex="1">
          <mxGeometry y="208" width="257" height="26" as="geometry" />
        </mxCell>
        <mxCell id="CcFHpQs5ojroJ-u2KoMF-36" value="+ 05 : int" style="text;strokeColor=none;fillColor=none;align=left;verticalAlign=top;spacingLeft=4;spacingRight=4;overflow=hidden;rotatable=0;points=[[0,0.5],[1,0.5]];portConstraint=eastwest;" parent="CcFHpQs5ojroJ-u2KoMF-0" vertex="1">
          <mxGeometry y="234" width="257" height="26" as="geometry" />
        </mxCell>
        <mxCell id="CcFHpQs5ojroJ-u2KoMF-38" value="+ 06 : int" style="text;strokeColor=none;fillColor=none;align=left;verticalAlign=top;spacingLeft=4;spacingRight=4;overflow=hidden;rotatable=0;points=[[0,0.5],[1,0.5]];portConstraint=eastwest;" parent="CcFHpQs5ojroJ-u2KoMF-0" vertex="1">
          <mxGeometry y="260" width="257" height="26" as="geometry" />
        </mxCell>
        <mxCell id="CcFHpQs5ojroJ-u2KoMF-41" value="+ 07 : int" style="text;strokeColor=none;fillColor=none;align=left;verticalAlign=top;spacingLeft=4;spacingRight=4;overflow=hidden;rotatable=0;points=[[0,0.5],[1,0.5]];portConstraint=eastwest;" parent="CcFHpQs5ojroJ-u2KoMF-0" vertex="1">
          <mxGeometry y="286" width="257" height="26" as="geometry" />
        </mxCell>
        <mxCell id="CcFHpQs5ojroJ-u2KoMF-40" value="+ 08 : int" style="text;strokeColor=none;fillColor=none;align=left;verticalAlign=top;spacingLeft=4;spacingRight=4;overflow=hidden;rotatable=0;points=[[0,0.5],[1,0.5]];portConstraint=eastwest;" parent="CcFHpQs5ojroJ-u2KoMF-0" vertex="1">
          <mxGeometry y="312" width="257" height="26" as="geometry" />
        </mxCell>
        <mxCell id="CcFHpQs5ojroJ-u2KoMF-43" value="+ 09 : int" style="text;strokeColor=none;fillColor=none;align=left;verticalAlign=top;spacingLeft=4;spacingRight=4;overflow=hidden;rotatable=0;points=[[0,0.5],[1,0.5]];portConstraint=eastwest;" parent="CcFHpQs5ojroJ-u2KoMF-0" vertex="1">
          <mxGeometry y="338" width="257" height="26" as="geometry" />
        </mxCell>
        <mxCell id="CcFHpQs5ojroJ-u2KoMF-45" value="+ 10 : int" style="text;strokeColor=none;fillColor=none;align=left;verticalAlign=top;spacingLeft=4;spacingRight=4;overflow=hidden;rotatable=0;points=[[0,0.5],[1,0.5]];portConstraint=eastwest;" parent="CcFHpQs5ojroJ-u2KoMF-0" vertex="1">
          <mxGeometry y="364" width="257" height="26" as="geometry" />
        </mxCell>
        <mxCell id="CcFHpQs5ojroJ-u2KoMF-42" value="+ 11 : int" style="text;strokeColor=none;fillColor=none;align=left;verticalAlign=top;spacingLeft=4;spacingRight=4;overflow=hidden;rotatable=0;points=[[0,0.5],[1,0.5]];portConstraint=eastwest;" parent="CcFHpQs5ojroJ-u2KoMF-0" vertex="1">
          <mxGeometry y="390" width="257" height="26" as="geometry" />
        </mxCell>
        <mxCell id="CcFHpQs5ojroJ-u2KoMF-46" value="+ 12 : int" style="text;strokeColor=none;fillColor=none;align=left;verticalAlign=top;spacingLeft=4;spacingRight=4;overflow=hidden;rotatable=0;points=[[0,0.5],[1,0.5]];portConstraint=eastwest;" parent="CcFHpQs5ojroJ-u2KoMF-0" vertex="1">
          <mxGeometry y="416" width="257" height="26" as="geometry" />
        </mxCell>
        <mxCell id="CcFHpQs5ojroJ-u2KoMF-48" value="+ 13 : int" style="text;strokeColor=none;fillColor=none;align=left;verticalAlign=top;spacingLeft=4;spacingRight=4;overflow=hidden;rotatable=0;points=[[0,0.5],[1,0.5]];portConstraint=eastwest;" parent="CcFHpQs5ojroJ-u2KoMF-0" vertex="1">
          <mxGeometry y="442" width="257" height="26" as="geometry" />
        </mxCell>
        <mxCell id="CcFHpQs5ojroJ-u2KoMF-52" value="+ 14 : int" style="text;strokeColor=none;fillColor=none;align=left;verticalAlign=top;spacingLeft=4;spacingRight=4;overflow=hidden;rotatable=0;points=[[0,0.5],[1,0.5]];portConstraint=eastwest;" parent="CcFHpQs5ojroJ-u2KoMF-0" vertex="1">
          <mxGeometry y="468" width="257" height="26" as="geometry" />
        </mxCell>
        <mxCell id="CcFHpQs5ojroJ-u2KoMF-51" value="+ 15 : int" style="text;strokeColor=none;fillColor=none;align=left;verticalAlign=top;spacingLeft=4;spacingRight=4;overflow=hidden;rotatable=0;points=[[0,0.5],[1,0.5]];portConstraint=eastwest;" parent="CcFHpQs5ojroJ-u2KoMF-0" vertex="1">
          <mxGeometry y="494" width="257" height="26" as="geometry" />
        </mxCell>
        <mxCell id="CcFHpQs5ojroJ-u2KoMF-47" value="+ 16 : int" style="text;strokeColor=none;fillColor=none;align=left;verticalAlign=top;spacingLeft=4;spacingRight=4;overflow=hidden;rotatable=0;points=[[0,0.5],[1,0.5]];portConstraint=eastwest;" parent="CcFHpQs5ojroJ-u2KoMF-0" vertex="1">
          <mxGeometry y="520" width="257" height="26" as="geometry" />
        </mxCell>
        <mxCell id="CcFHpQs5ojroJ-u2KoMF-49" value="+ 17 : int" style="text;strokeColor=none;fillColor=none;align=left;verticalAlign=top;spacingLeft=4;spacingRight=4;overflow=hidden;rotatable=0;points=[[0,0.5],[1,0.5]];portConstraint=eastwest;" parent="CcFHpQs5ojroJ-u2KoMF-0" vertex="1">
          <mxGeometry y="546" width="257" height="26" as="geometry" />
        </mxCell>
        <mxCell id="CcFHpQs5ojroJ-u2KoMF-54" value="+ 18 : int" style="text;strokeColor=none;fillColor=none;align=left;verticalAlign=top;spacingLeft=4;spacingRight=4;overflow=hidden;rotatable=0;points=[[0,0.5],[1,0.5]];portConstraint=eastwest;" parent="CcFHpQs5ojroJ-u2KoMF-0" vertex="1">
          <mxGeometry y="572" width="257" height="26" as="geometry" />
        </mxCell>
        <mxCell id="CcFHpQs5ojroJ-u2KoMF-53" value="+ 19 : int" style="text;strokeColor=none;fillColor=none;align=left;verticalAlign=top;spacingLeft=4;spacingRight=4;overflow=hidden;rotatable=0;points=[[0,0.5],[1,0.5]];portConstraint=eastwest;" parent="CcFHpQs5ojroJ-u2KoMF-0" vertex="1">
          <mxGeometry y="598" width="257" height="26" as="geometry" />
        </mxCell>
        <mxCell id="CcFHpQs5ojroJ-u2KoMF-55" value="+ 20 : int" style="text;strokeColor=none;fillColor=none;align=left;verticalAlign=top;spacingLeft=4;spacingRight=4;overflow=hidden;rotatable=0;points=[[0,0.5],[1,0.5]];portConstraint=eastwest;" parent="CcFHpQs5ojroJ-u2KoMF-0" vertex="1">
          <mxGeometry y="624" width="257" height="26" as="geometry" />
        </mxCell>
        <mxCell id="CcFHpQs5ojroJ-u2KoMF-50" value="+ 21 : int" style="text;strokeColor=none;fillColor=none;align=left;verticalAlign=top;spacingLeft=4;spacingRight=4;overflow=hidden;rotatable=0;points=[[0,0.5],[1,0.5]];portConstraint=eastwest;" parent="CcFHpQs5ojroJ-u2KoMF-0" vertex="1">
          <mxGeometry y="650" width="257" height="26" as="geometry" />
        </mxCell>
        <mxCell id="CcFHpQs5ojroJ-u2KoMF-44" value="+ 22 : int" style="text;strokeColor=none;fillColor=none;align=left;verticalAlign=top;spacingLeft=4;spacingRight=4;overflow=hidden;rotatable=0;points=[[0,0.5],[1,0.5]];portConstraint=eastwest;" parent="CcFHpQs5ojroJ-u2KoMF-0" vertex="1">
          <mxGeometry y="676" width="257" height="26" as="geometry" />
        </mxCell>
        <mxCell id="CcFHpQs5ojroJ-u2KoMF-56" value="+ 23 : int" style="text;strokeColor=none;fillColor=none;align=left;verticalAlign=top;spacingLeft=4;spacingRight=4;overflow=hidden;rotatable=0;points=[[0,0.5],[1,0.5]];portConstraint=eastwest;" parent="CcFHpQs5ojroJ-u2KoMF-0" vertex="1">
          <mxGeometry y="702" width="257" height="26" as="geometry" />
        </mxCell>
        <mxCell id="CcFHpQs5ojroJ-u2KoMF-7" value="+ total : int (NN)" style="text;strokeColor=none;fillColor=none;align=left;verticalAlign=top;spacingLeft=4;spacingRight=4;overflow=hidden;rotatable=0;points=[[0,0.5],[1,0.5]];portConstraint=eastwest;" parent="CcFHpQs5ojroJ-u2KoMF-0" vertex="1">
          <mxGeometry y="728" width="257" height="26" as="geometry" />
        </mxCell>
        <mxCell id="CcFHpQs5ojroJ-u2KoMF-9" value="+ probabilite_presence_anomalie : string" style="text;strokeColor=none;fillColor=none;align=left;verticalAlign=top;spacingLeft=4;spacingRight=4;overflow=hidden;rotatable=0;points=[[0,0.5],[1,0.5]];portConstraint=eastwest;" parent="CcFHpQs5ojroJ-u2KoMF-0" vertex="1">
          <mxGeometry y="754" width="257" height="26" as="geometry" />
        </mxCell>
        <mxCell id="CcFHpQs5ojroJ-u2KoMF-4" value="+ jour_de_la_semaine : int (NN)" style="text;strokeColor=none;fillColor=none;align=left;verticalAlign=top;spacingLeft=4;spacingRight=4;overflow=hidden;rotatable=0;points=[[0,0.5],[1,0.5]];portConstraint=eastwest;" parent="CcFHpQs5ojroJ-u2KoMF-0" vertex="1">
          <mxGeometry y="780" width="257" height="26" as="geometry" />
        </mxCell>
        <mxCell id="CcFHpQs5ojroJ-u2KoMF-6" value="+ vacances_zone_b : string (NN)" style="text;strokeColor=none;fillColor=none;align=left;verticalAlign=top;spacingLeft=4;spacingRight=4;overflow=hidden;rotatable=0;points=[[0,0.5],[1,0.5]];portConstraint=eastwest;" parent="CcFHpQs5ojroJ-u2KoMF-0" vertex="1">
          <mxGeometry y="806" width="257" height="26" as="geometry" />
        </mxCell>
        <mxCell id="CcFHpQs5ojroJ-u2KoMF-57" value="GeolocalisationCompteur" style="swimlane;fontStyle=0;childLayout=stackLayout;horizontal=1;startSize=26;fillColor=none;horizontalStack=0;resizeParent=1;resizeParentMax=0;resizeLast=0;collapsible=1;marginBottom=0;" parent="WIyWlLk6GJQsqaUBKTNV-1" vertex="1">
          <mxGeometry x="480" y="210" width="237" height="156" as="geometry" />
        </mxCell>
        <mxCell id="CcFHpQs5ojroJ-u2KoMF-58" value="+ numero : int (1)" style="text;strokeColor=none;fillColor=none;align=left;verticalAlign=top;spacingLeft=4;spacingRight=4;overflow=hidden;rotatable=0;points=[[0,0.5],[1,0.5]];portConstraint=eastwest;" parent="CcFHpQs5ojroJ-u2KoMF-57" vertex="1">
          <mxGeometry y="26" width="237" height="26" as="geometry" />
        </mxCell>
        <mxCell id="CcFHpQs5ojroJ-u2KoMF-59" value="+ libelle : string (NN)" style="text;strokeColor=none;fillColor=none;align=left;verticalAlign=top;spacingLeft=4;spacingRight=4;overflow=hidden;rotatable=0;points=[[0,0.5],[1,0.5]];portConstraint=eastwest;" parent="CcFHpQs5ojroJ-u2KoMF-57" vertex="1">
          <mxGeometry y="52" width="237" height="26" as="geometry" />
        </mxCell>
        <mxCell id="CcFHpQs5ojroJ-u2KoMF-60" value="+ observations : string" style="text;strokeColor=none;fillColor=none;align=left;verticalAlign=top;spacingLeft=4;spacingRight=4;overflow=hidden;rotatable=0;points=[[0,0.5],[1,0.5]];portConstraint=eastwest;" parent="CcFHpQs5ojroJ-u2KoMF-57" vertex="1">
          <mxGeometry y="78" width="237" height="26" as="geometry" />
        </mxCell>
        <mxCell id="CcFHpQs5ojroJ-u2KoMF-62" value="+ geolocalisation : geometry (NN) (UQ)" style="text;strokeColor=none;fillColor=none;align=left;verticalAlign=top;spacingLeft=4;spacingRight=4;overflow=hidden;rotatable=0;points=[[0,0.5],[1,0.5]];portConstraint=eastwest;" parent="CcFHpQs5ojroJ-u2KoMF-57" vertex="1">
          <mxGeometry y="104" width="237" height="26" as="geometry" />
        </mxCell>
        <mxCell id="l-WufgA6ioibqLbBXE7c-1" value="+ idQuartier : int (NN) (UQ)" style="text;strokeColor=none;fillColor=none;align=left;verticalAlign=top;spacingLeft=4;spacingRight=4;overflow=hidden;rotatable=0;points=[[0,0.5],[1,0.5]];portConstraint=eastwest;" vertex="1" parent="CcFHpQs5ojroJ-u2KoMF-57">
          <mxGeometry y="130" width="237" height="26" as="geometry" />
        </mxCell>
        <mxCell id="CcFHpQs5ojroJ-u2KoMF-79" value="LongueurPistesVelo" style="swimlane;fontStyle=0;childLayout=stackLayout;horizontal=1;startSize=26;fillColor=none;horizontalStack=0;resizeParent=1;resizeParentMax=0;resizeLast=0;collapsible=1;marginBottom=0;" parent="WIyWlLk6GJQsqaUBKTNV-1" vertex="1">
          <mxGeometry x="483.5" y="450" width="230" height="78" as="geometry" />
        </mxCell>
        <mxCell id="CcFHpQs5ojroJ-u2KoMF-80" value="+ code_quartier : int (1)" style="text;strokeColor=none;fillColor=none;align=left;verticalAlign=top;spacingLeft=4;spacingRight=4;overflow=hidden;rotatable=0;points=[[0,0.5],[1,0.5]];portConstraint=eastwest;" parent="CcFHpQs5ojroJ-u2KoMF-79" vertex="1">
          <mxGeometry y="26" width="230" height="26" as="geometry" />
        </mxCell>
        <mxCell id="CcFHpQs5ojroJ-u2KoMF-81" value="+ amenagement_cyclable : int (NN) (UQ)" style="text;strokeColor=none;fillColor=none;align=left;verticalAlign=top;spacingLeft=4;spacingRight=4;overflow=hidden;rotatable=0;points=[[0,0.5],[1,0.5]];portConstraint=eastwest;" parent="CcFHpQs5ojroJ-u2KoMF-79" vertex="1">
          <mxGeometry y="52" width="230" height="26" as="geometry" />
        </mxCell>
        <mxCell id="cKdESt3E2SooS_IdA-HN-1" value="QuartiersNantes" style="swimlane;fontStyle=0;childLayout=stackLayout;horizontal=1;startSize=26;fillColor=none;horizontalStack=0;resizeParent=1;resizeParentMax=0;resizeLast=0;collapsible=1;marginBottom=0;" parent="WIyWlLk6GJQsqaUBKTNV-1" vertex="1">
          <mxGeometry x="503.5" y="610" width="190" height="78" as="geometry" />
        </mxCell>
        <mxCell id="cKdESt3E2SooS_IdA-HN-2" value="+ identifiant : int (1)" style="text;strokeColor=none;fillColor=none;align=left;verticalAlign=top;spacingLeft=4;spacingRight=4;overflow=hidden;rotatable=0;points=[[0,0.5],[1,0.5]];portConstraint=eastwest;" parent="cKdESt3E2SooS_IdA-HN-1" vertex="1">
          <mxGeometry y="26" width="190" height="26" as="geometry" />
        </mxCell>
        <mxCell id="cKdESt3E2SooS_IdA-HN-3" value="+ quartier : string (NN) (UQ)" style="text;strokeColor=none;fillColor=none;align=left;verticalAlign=top;spacingLeft=4;spacingRight=4;overflow=hidden;rotatable=0;points=[[0,0.5],[1,0.5]];portConstraint=eastwest;" parent="cKdESt3E2SooS_IdA-HN-1" vertex="1">
          <mxGeometry y="52" width="190" height="26" as="geometry" />
        </mxCell>
        <mxCell id="cKdESt3E2SooS_IdA-HN-5" value="Temperature" style="swimlane;fontStyle=0;childLayout=stackLayout;horizontal=1;startSize=26;fillColor=none;horizontalStack=0;resizeParent=1;resizeParentMax=0;resizeLast=0;collapsible=1;marginBottom=0;" parent="WIyWlLk6GJQsqaUBKTNV-1" vertex="1">
          <mxGeometry x="503.5" y="800" width="190" height="78" as="geometry" />
        </mxCell>
        <mxCell id="cKdESt3E2SooS_IdA-HN-6" value="+ laDate : date (1)" style="text;strokeColor=none;fillColor=none;align=left;verticalAlign=top;spacingLeft=4;spacingRight=4;overflow=hidden;rotatable=0;points=[[0,0.5],[1,0.5]];portConstraint=eastwest;" parent="cKdESt3E2SooS_IdA-HN-5" vertex="1">
          <mxGeometry y="26" width="190" height="26" as="geometry" />
        </mxCell>
        <mxCell id="cKdESt3E2SooS_IdA-HN-7" value="+ tMoy : int (NN)" style="text;strokeColor=none;fillColor=none;align=left;verticalAlign=top;spacingLeft=4;spacingRight=4;overflow=hidden;rotatable=0;points=[[0,0.5],[1,0.5]];portConstraint=eastwest;" parent="cKdESt3E2SooS_IdA-HN-5" vertex="1">
          <mxGeometry y="52" width="190" height="26" as="geometry" />
        </mxCell>
        <mxCell id="cKdESt3E2SooS_IdA-HN-15" value="" style="shape=image;aspect=fixed;image=data:image/png,iVBORw0KGgoAAAANSUhEUgAAAYoAAAEoCAYAAABGqrb1AAAAGXRFWHRTb2Z0d2FyZQBBZG9iZSBJbWFnZVJlYWR5ccllPAAAJ95JREFUeNrsnV2MHFd23y+/KX6ITUrWitZq2fQGMODNmj1eLwIkAdjzYgMONpwBbMBwArAH8KMXnHky/NTTLzb8YMwM1o8OpufFyBubWNgPRoBpPgZGwBYWDhInXjal3aUirqQWSZEURUm5p+cUdaem+rur6lbV7wcUeqa7Pm7dqjr/e86595YxAAAAAAAAAAAAAAAAAAAAAAAAAAAAAAAAAAAAAAAAAAAAAAAAAAAAAAAAAAAAAAAAAAAAAAAAAAAAAAAAAAAAAAAAAAAAAAAAAAAAAAAAAAAAAAAAAAAAAAAAAAAAAAAAAAAAAAAAAAAAAAAAAAAAAAAAAAAAAAAAAAAAAAAAEE3jYr1ql1Jc6wPA7ByiCiAlgSjbj127yGfPLsv1+432iG3u2I+K/ivrt6hJgPg5TBVAStRUJATxEG6MEIklRyTMqPUBAKGA/LE04verof97VBkAQgH5pjXAaxhXSG5RhQAIBeSY+v1Gx350R3gNgYCUzddhqoFCAwAIBeSP9givYdD3HSs0hJ4AEuIoVQApIuGjmvN/2XoPFfU2XK6F/t9xvI2S7kPWqYYFRY+x6QqL3Wbd8V5u29/WNex1PSRK4vHsyO/OtpJQ33B+XzN7yfi6Hj/wfHrq9TTs9t0IL0m2WdVyV0JllmNuDvCswscJytHW7drcVjBv6B4LqaHG8uPQ12uukRywzoKIif52xxwMS5kIwVgMxMJu91Xo9+6IfbTttou67W5IkAIBGjS2o6fl7YYM/s2QQIwqs6y7O+Q4++qGuwvmCaEnSA01gq0R3kM47NR1DGFlDJEI1luNMO4vPZkR28sgv9qAbUsjjHfJ8UACRolEUOYNRyzHEQkzxn4BEArIHLcijHJpiHC0Qq3ujuMViCciLf8V5/uA687fi1OUMwhVRe17FEuON1GLMOYNLVMj9H1NvY9qSCR6eq4N/ew49UGSH+YOOQpIGzFs2xGGtRkIR+i3nZBHsiDTeoRj8/Y7MZp3orwGDVu1Q/uW9SXs1XZa8JXw9nJM+/tWRJlfhsw0B1IPlaes4adwz65NJwcix75k9udtqhEez5abNwHAo4Bco8Y+MnmtCWa3Jd2Nir9HJXCj1hNBGebZBPvRMu0MWbcb+r8dSj5vRmxTDgvWAI/q3oDtXG6IZ6LeBgAeBRSCnVDrfUlb9eGwUztqYxWUq2a+8fmpE8LqdYy7+u4Y67ZCHkop8Gjstj2tFxG6JrcSIBSQV8QQhhO+S2bEaOwBIaI8el1RoTJXNJZUXGX+q0XGmMC8IfQEPhjCbkQLfsOEErgRs8WO03so6wT1smz2ktfDRKAS8jwA8CggV4TDT6UIr8P1JioRLeyW7icwprsZOO81MzjM9XIEun6uy+Kc+xX1Jty6quk+ARAKyB1R4aewkJghQiKJ7uWQmGTFo2pPuP7LbsHaA+vOkHoBQCggH0j4Sbu0RoWSupMa0xE9nNKkE/KEpAdTKxi5rXkX8RLKdmk639dUBFqhKUHK3D2AUECR2BkgFFGDyLqh/8s6vcZtu5wz+8ciBIjHspDyOUpCfjVk6O9qsroUOn/p9bWgIhGM29jQnk4d3bY8Rl0BzATJbPCJ1hABOeCBmIPdZaWlXldDHBWCqVgju5qy5yRlbkb8VI0QyfIAr6FkogfiiYA0uI0AoYDcosY/bETbQya5WzbDxzt0zOBeQrfDxxnhsXRDBnnYuuH99dzQmf1bpgHZHFEdss81Z1+9MdZfZEJAiANmjwWvcKbfvqqGvjFqXIDzPu1z+tUnZq/HUEtHL9f0t3uhmWnlODJlxu2IrrfBfiX8847Zyxf0xvktdB5y3J0BI8WlbEGvpSu6r0Ac2xH7c72OoesDAAAAAAAAAAAAAAAAAAAA5JrC9nr6h7/4+2rE193f+bPf63JbAAAUUCisMEi3QnkdpgjEqBlHpaukjKBtWeFgymYAQCgK4DnUTfRc/qPoqWisIRgAgFDkTyCCt4AtzWF3PRWLJrcMACAU+RAJCS3JBHHznnK5acVihdsGABAKRGIYkrdY5tYpFj/6D39dUe9UpvwoR6wiU3TIlBrtH/7dn3SpMUAoiisSeBbFEgcRBHkPdW3Ce6ptlx0rGE1qERAKv0RCHuS7Jrk3fDWsWKxzC+VSIIIJ/WZ9RZ54GWtWMNrUKmSZPE0zvm2SfQ1kfcBYDMi2SARe6Tzeo9rfl90nDQpAKDzwJsRgL6Vw6A1uoVyKRGXOu67bfW9Tw4BQpEs9peNWrEjVuI1yJRJxeaU1xAIQivS8CXnAqykW4Tq3ESIxgVjQsACEooCGumrFqsytlFmRCAZmJpXfukGtA0KRgqGmDDAD0rupkuDxKurBACAUST54HpThCrdSJr0J8QTTyG8RrgSEIik86p5KCzGbpBUGwgMFhAIgI9TSalioNwOAUAD4ijXU0qovpVgEvFBAKAA8p5ry8a9yCQChAPCbtDsg4FEAQpEQXS4hTEkp5eNXuQSAUCTA7/zZ7/kiFLe5lWBSSGgDQpEcLQ/K0OZWgilAKAChKEhrvmc9G4QCpqFKFQBCkQxNPBrIKOeoAkAoEsC25nspi0WD2wimhJ5PgFAkyJpdeikcd9OjhDoAAEIxwqtYS/iwXbwJmJEqVQAIRbJi0TTJhaBEmJZVoAAAEIoMicWKSSa5vGaP1eH2gVlhLAUgFOmIxXKMnoV4ECvqvQDMA4QCEIoUPYt55w+6dllEJACgaBzN64lZg77+D3/x923754aZvRvipghPXDkJfQGTLJciWphyzHfs0i7KwD6dAnxQfYhg35P6+OHf/UmbRxggfg4V4SStIa6ZvddPVifYTAx0SwWiG0OZxADKG9akbKUJy7SVtxyJvkda6mNpivpoWNHoTni8XeNHr6OmCt8knm1/mfScARCK+RpmeQAlYd2KoRxybHlP8+qMu2ppGTNtLJz3Vtfm4fVZ49kb87i+CMUsyLUXr2oH7woQitkFYlpDJA/ijoSx5lQWaTXfNPNLYAbJ9UxOI2KNtXgP22Z+U35LfSxao9kZ49h5EIoDjRt77kwpAwhFCi334CFcmSVHoOGv7ZhOtzEvMUtQJOS6bMS0+xVrMJsFEwrX01wZ17MCGIdc9npSL2J3TiJh1APYtftdn7I8cYqEULfH2M7K9bFGej1GkRC27TFqBX2mxUu78+f//q+YRwoQiiFGWR6QOyaeCdcmNsjaoykJI15TQfJdJGrq6cXNtvaeKhwffvCkfP+9R7s/vLSOWABCMcSTiPM1l7VxxULDXzcTrIJtFUpfRaKSkGgG3LTHLBXpgX7/549FKIw+A4gFIBQDjHIShkHEYpyw1rZJ/t3MPoegki5byfP6mLtIPPz4Wfj8b1qxKJRYwvzJTTLbGm6Jea8mfNiFQeMZNOS0m1J1eDfNiIac0jLai+Huo3lLZkeIhMvmj+6trxkYSONivaT3w1WzF7Yum/29E+X+eTn4tX6/0S5S/eRiZLYa5dUUDi3itDjgtxspVonkAJqeXaZ6ysfO5YP95RdfWZF4ZB4/fD5stVXrVdyyYlEo4zamQFTN1wM9hxE0KmS9ut0ueGHalhWNbt7rKS+hp7SMUFVFKixcpTFuvDgpR5UrRW+iYtKd/K6ax1laRSTeu/vJKJHwQai9FAi77KrXP82zWtLG6V27n231SBAKj72JcsohhCjPYcmDqrnm0WVaogzxiMRnz16MLZbWq8idWE4pEhsqEPOyGzUVjKW81lkePIobKR9/ST0Il6se1EvVo2t0lTKkKhK5FMspBKJklzsmnjB1v+OAeBcIhZ/4YBDDD6APLTdvukWePHvSh2uUi9b0DCLhm5eZtEjI83A3geeilkexyINQ+GAQr/jYmo/wdFJh4Q++Z879aon7JF2RyEUdTCkS0kiIe3xVrsUi00Lh0eAyXx/A1MvV+fFPKkePHzW/+R+vmEu/XTYwPR+8/+ksIiGUijamQpPMSY2vCovFRl7qMeseBQOJMnSNvvXbl/qCcfTEUWplQkaMk8CrGEw9xXNezUuC+zCPICSJhKC+/5/+jQ+hqCKKRKHQMRKrKRdjIw9dZxEKSBxCUYhEQviQJyh7IFYIBWQXQlHDkcn9YhCJbkG8iZrxp6fbjax7FQgFpEoQinrt8utUhsPD3mfBLLBz5Uf31rsFqcLrHpVFRKKGUADMgISifuN3v2N+7d99G+9CReL9nz2KY9edItSfdoetIlwIBeSQt777zX4o6vTrZwpbB9L9NSaRENoFqUYfexpVVMAQCoBZOf3aGfNbv/+9Qia6RSRkQF2M3C5IVfo6XUs1qxWKUICXSKL7t/7gezL9RyHOV0Zd/+LdR/3PmOj+6N56qyC3j69jRfAoAOLwLmT6j7d+85u5FwnxJD5//kWch2kU6Nbx1SBndmJKhAK8RhLdv/Zvv93PXeTVu5jD1Byj6FhvosndBAgF5BrpRptH7+LB/U+TGFC3wh0ECAXgXWQQ6Qb78YdPYxcJ6010uHsAoYBCehdZ7hkVczfYgCYhJ0AooNDeRdAzKmvjLoLkdcw0rEgUNeTU9bRcme2ejFBApgnGXWRlVPcXX+6JRIzdYHt2WbYisV7g28LXUFs3qxWKUEAukFHd3/nd75hXTh/3upySvI6xh5OMk1go0HiJrLXc25n14DExkAe+fPGFefzeh+b1i6+ap58+N71ffmpefP6FV2WU5HUMPZx6KhBbJK33CaZvb5fr1O83MutRIBSQCz765/fN80d7Rli8ihOvHDOPe0/NJx898aJ8Q5LXHTX2kyAG5560UK04tLn6+xGD3LhYl3r1aYT2TpbrFKGAzPP4fs88/sV+W3v48CHz6oVT5tSrJ81H/++R+ezp5+l5Ozo9xwDWMPaxsGX8eHFR4PU1s1yZ5Cgg04gX8dH/fn9wS+joYfPGW+f6Iam0+MW7D+OengMOehVN40/yeMuWp5fl+kQoILNIXuKX//Pn/c9RpJXklpcPPfn0cy5WOqx54k1sZr0iEQrILL2fPniZl5iU1948a47F3J32qRWION5SB2N7FZLUTrsH2ErWvYm+Z87tlE9Onj9tXimdzu35Pfv4U/Pw3Q+n3v7UmRP95dNHn5neg8fmyy/nO65B8hI/f/chN2L6yKDDskknsd1Usco8eBQ549CRw+bct143r751wRw7fSKX5yihpg/eeW8u+zp99oS5WL5gzl04NdcySl4ixkF1ML5X0VOxSLpV37bHzs3IeIQiRxy3wnDhX33DnHj1lVyf5y//aby8xNgPgfaQEsE4/erskw3KRH/kJbwSC+kqu5igWLTtspynOkQocsLpN86Z0uU3zJFj+Y4mPnnwqL/EgfSQuvDGGfPm26X+OIxpkPESMvoavBSLBRP/9B4SblrMQ14CocgRR08es17Em1YoXs39ufZ7OVlvIm4kyS1damWZRDAk1PT+zx5zU/orFl31LOLohdQPceUp3IRQ5MiLEJEQsSgC8w45jUJEQsTiwjfOmqPHjoxcX3o4xfymOphdLHp2WVPBaM/Li7DLZR27kc8GKbdONr2IsxfP5zZZHYX0coor5DRSkM+e6C/SQ+rhR08i55CSrrAJvIQI5icYIhLtxsV61X7esMvSFB6ECMNWludwQihy7EUUIczkEgysS73uBwhGP+T0c0JOGReMkv0U0ZButFf156ojCsGcXO/YpaU5j+I0TrlVsuNFvPrN1woTZnJ5+O5H5sVTf3oRhQXj3Xc/ZoqO7AtGMAtvi9pAKDKHjIsQD+LUa2cLef4y8rr30w/89O6sWIhAkJcAhAJSQ0ZXn32z1BeLoiLTh/vKFy++NO/+y4fmbOmEefH5l+bZkxfm+Wd4FoBQQBIXpYDJ6igkeS1JbF+5938/7ItF/5odO2zOnDvez1c8e/rCfPb0C/PVV4zMBoQC5kzRw0wuksD+6J/ve1u+xw+fRb4U6fCRQ+bUmWPmldNHrXex52UEYgKAUMBMSG+mU6+dKXSYycW3BLaLGP57/2f4hISHDh0yJ04e6S8SlvpMvIxnhKUAoYApkDyEeBF5n3pjUm9ilplh4+b+e59Yb2H8BLaEpY4eO25Onf2qH5KS0BQTBgJCASORCfzOXDxfyO6uo5AEdpIjsCfh6afPzYP7000fLl7GyVNH+4skvZ9bD4PkNyAUECkQEmYqeqJ6EC+efX7g/dc+IQnsudwHJ470l72dct0BoQAEYmx8HTMhiCchHgUAQgEIREpIV1hfvQlJYEtuAgChgLkhSWrp5koOYhJv4oG3ZftZ92O6uQJCAfPjtV+/SC+mKbwJXwfXyZiJjz5g0j8oLnTan0clHt1fjYhEzryJux9zgQCPAqZD3k19snQ69++ojhuZ+M9Xb0I8CRLYgFDARBw5frQvDifPn8JzmBMP3/NzcJ3kJCQ3AYBQwEhkWg3xGl6xAkHvpfni87iJB/cfkcAGQCiGI+IQhJcgHnwdNyFTdHww5QhsyC6Ni/Wy/ZClGvqpq0tHX3KEUCAOdjn7ChP0xYxM0+GrNyFjJvAmCiMO8vrTGyoO5THWl9eg7pi9V6J2EYoCEISVRBhISieLzBDrI5K8pjtsIQRiyX7Uzd57siehosuG3UdTdpV3wSikUMho6WOnT/aFgQFxaQqFn0lsEti5FwjxGrbNwfDSNNRksfvcVMHIZViqELEVEQYZJX3uW6+bN/7126Z0+Y3+1N6IRHo8vt/zcoZYGVz3+JNnXKD8ioQY9jtzEgmXVbvsahgLofAd6b4qnoLMr3TeCkIgDGculggt+WSQPc5NJEyVuyExkdhWT6IU0yEqKhZLeau7TIeexFOQHMPRk8f7fx8+foSxDfspe1CGAw+lrwPs8CZyLxK1hO73m/Z4K/X7jSYehQ8WyHoKEk6SMJKMb0AkvBSKA664rwPsUpod9iq3aewisZ6QSLhs5CkMRf/PeGh7Uo5rHpRhnyGUvMSTDx6lUY6Op95EhcclVpEIejal4UlLGKqUh3pEKPJNpfPjn6TmVdhjy0NSdb978uBRWknscFLktgfeRN+g1L//l0vcqrGIhNx/2ykWIe3jIxSe41OmtubTsX1MYnuQm7jGIxMLGya+xPW4LFnBqiIUEMU7HpXlurbs0+CG+4/M65RiEvt22OHxwJt4KajWqyjz2MzVmyin3EhyqWe9Psn+xkPXo7LIAyN9vNeTPKgVp3UTSqY/+SDVuZN6Uf971NNJQhSLaRbgb/94R0JgklMKRh6XQsLaVcFt/9HfXO94/gz6ZJyr4lXU7zfaCAX4KhT9h8Ya7lblB99N5OG2x6qEvQkh5d5O+859aesP260b/9Wn92BXJVfR+Mc/bSUsDiVtSNwww8M0gXgs6XZyjzfs0rKi4eOgGN/yPteNP51cJobQUwxYg+zjDbGdRAhKj3FgUJOMnXjx9HNvhKLv4Tz+rOvZuIltKxaJ9YKyxr5mP+5q63vSe6Os1/mu7scbtKeTb72NMt1hAaFI0DClrV922U1ALG6aiC6fMmVHmh6e9SAOFOC9n37km6CXVCxivUbWsJftsmvmM0q5X2bZn3onPuDj2JRSlpPaCEVxhCJWsZB92kWMT+TD8ORBqvmJSEF48vj5O75eo7iS29aYS5gpjrmOZH8iFmVP6tBHEAo4wG1PyxWIxdweJt3XQJHwIOx0exIB8eQa3bFiMTfD4ngRcXYZrahYpO1Z+GqQLyEUkBUj9NIQac+kWUViXUVioPDIIDsfr0XjH/806MnjIyX1LLZn9S5i9CKiKOv9ANF1g1CAY4l/8F0xQN53IbSG/q4Y+0nCURpmWpVtzRiJ0JTDTp2lrT/sZlTQhZpd7qpgjO0FSp6j+Z//S82KxF2T/MCzij3uOlYgP9A9Nl52jP9z+ZTV2ItoiLDdMl+/HzjcwpVzuTpJy1QG2UnoKeVrMIxbxp+BWaMEQwbmdVXc3hnQEJFrc+XMuZNLx0+m+njXrVg0/+hvrncxAwgFDKelrbnMOELzFraUB9kF12AgMm7BGt+e8a875TBhHypsJ145Zi6+fc4Lj9UuK5iB7EPoKU6rm43wU6yk/N6JUWGnscQkUw/0kcPmrXLJfh7ywgvypBeUL2TWu0Io4meryCefciJ7q2jX6FvfvmCOHT/iU5FupHDMtqeX5x5CAYO8iqbxazbZongTPetNNMdZUXs/tbNe32++fc6ceMW7aHIaI5J99eIze48hFHgVRfcmcnGNzv/KaXPugpfvhC+nEH7ycQxTL8uTAiIUybBZRK8iRY+ip3U+NjoZXzeL9SwC8cavnvW5iIkKhTXILQ+ft0znwRCKBKj84Lu9onkV8ha7FLvFbkXN7TSOXmStnqWH05t+9HAaRjWFYzY9q4OdLD/PCAVeRUzexJPMeBOOVyHGJTPhAREJSV5DdGPBo7K0sxx2QiiS9yoaRTnfFMNOjSm9iUx5FdINVkTCk26w3mENc3faBkMc92TW6xOhSFYs5MYtxLiKlMJOMm5iJuNgvQpp+TURiVzQ8MCLb2Xdm0Ao0mENjyI2VuZ4jbwMEwYi4WE32GGkYiitgZZruJzieXdNTkamIxTJexVtj1ziPImEhJzm4q1Zr6Ln6wOeQZEIDGYqaGs+jcZZX6RUrBAKmEos5MbNbQgqhbCThJzW56o6e91lmz7Vq6cD6kaKRNoTA1pjvZnwtRRxWLTHzc0zjlCkx4rJaS+ohD2KOMML3gi6iISnA+pG0fahENZoy/PWSOh+zJVIIBTpehUdk9OZNZ8/TtSjWBlz4r9pvIqeD4KeYZEQvBk/YI33ujYq4rqe8kwv5E0kEIr0xaJlctZlVgbaJfja0zUrErGOeNV5oFIT9IyLhISd2j4VSEdtL5j5jpTud323+17Qbrm5A6FIXyykldPMjTeRXH6iOWtX2AnEIhVBz7hIGF8bQWLM7SKexaKZLTTW02d3Qb2V3JLpjtidH/+kavx4P2/bGvzFGc9FzqOa9Ruq99MHdvkgCZFIvJUvryM1Cb0NLwci0bbexGIWCtq4WC+bvVlur43xDPZUXOTNiK289GoaBW+484dlFb1Klk/ixbPnsbcP0hAJ9SxWrFiYuMUiByLhbffiQR6G2euyvqnCIc9g1BsPu3kNLeVdKHKj5jLFh/UqFrMuFjHnJ9om3QFUsYtFDkRCWMnyu7LzmIyelUznKLTnkA/cntP59LvWmQy/4CTGrrESblqccR6nuYmFmXNeSUZcv/3tC3kRidy8WhZyIBROKzNt5iZYIhaa72hm7UK8eBabN9FMK9yUhFgE03KcOnM86979ohWJpgGEwkNu5VGsrFgkNUBofkLxNJb8xJpvIhESi5nKltG5m6Lu/wXfusICQuGStpvb1JDR3NGus5kZwT3nd1D0R1wn1QV2BrGQFvTCNNcoeJ9ExkWiIb2bspyTgAIIhTWmXZNumGYn5vOTc5NQlPcJNhlsNyf6I1zjHkw3R7GQ8l6epNGSA5HoqhexjhnNP7mY0L7z45+U7cfdlLyJlQTPc8N+rPp6Hd7/H915JLMb857gL0nq3/9LuT51E929so/kIt4qn8/y+yQ21ZMo3HvgEYrsi8W6PqBJIQ/J5bjCTkPOs2o/RDC860L7i//+L7OMzO5PlTGvqcJTFouyXqOl8G/SqykD77gedo3WyEUgFFkXiyRHNy/rXE1pnevIlmvisYj/9k/TCq4krJt5e7isYMi9KKO5RTjM62+eMa9940wWT6WnHkSu36MCxREKMZpJDFhb0dyBD+crgnEjbcGQ/MS77f81qfHZkjCGD2MjYhaM2htvvVo///qpcgYFon+NCDMhFLkiAbHwQiR8EwzJTUiOAoEYzN/+8U5NvUDfBUMu5A4CAbkVCsdwSoy4NufW1Uqa4aYxz3tJBSPRHMYYQtEW45PHENMUglG1H9dNQhMMTkD/GjFoDgohFI7hFKO5PYdWdltFopuhcy+raFxPQjQGzBrb0ZZpK66XC2VcMAJhv2YiEt9J3SrBNWIsBBRSKJxW9qoazEldfhGIhhWIdsbrQM5bWrFXVTTmLhwqFB01PLdVHAhbTCYa7jWqxqXpel/fRhwAoYg2mFXnYSxHCEdbH6T+Q5QlD2LKugjq4IrjdY0yUG3H4Lxj9uLZ3ayLqafiUdHrI5+XnL/H8ZB7KtrBdeqLOMIACAVA8cTEFfYOyWcAAAAAAAAAAAAAAAAAAAAAAAAAAAAAAAAAAACAmGBkNsxE42K9Zvamzm7V7zfWqBEAhCJLBqxsP8rWeLVHrWOXjl2vN8OxxFjK/DvNWfaTQh1Vzd7cTlLu7hTbyznf1XM3dh80PAByyOGcikRVDdiu/Xt31Dq6THssee+FTGW+Mct+UqqjXfUG7qpoTsqq+XqCuhaPE0A+OZrT86oO+HvQOrNMu12Z037SrCOjnlVXRSSYirw1wkO6oZ/9lzpNIbCD6kvK0ZjGy4EDnu710LUOphnfsfXbmuOxStpg6r8DPUueNRTUo0iY287f7QyVu6kPdWA8uo5xuaMP/fa4dmISw6DezKoasKilpl5OLUYjWlFBzKtIBNcv3CAIXpZ0c0ovchAbut+aXltAKCDAGsh1+7Fgl0X792KGyt0Nym2Xy07rvRwyKsMIznszpmJuz9mYBUZ0ScXwjv6dR0+ilvBhy1iD/HKUKohs7fas8evo/2Xz9Qtj+i9/GdB6LrmtVTMkdKO/l8Ouf/C9LgeOpe69rNMNDLtTPhP6Pli3ot5Cb0DZy8Hvuq9L7jlpfZgh25bV2PaGdRwYgSuwcrx66P/mnC/zdefv/nXK2W18w/lb7qNl576oaMu/Q2gPEIrpROKmPkTyd1MNYdh1F4MqMdim03rbdraR9w8HSW15k95KRGvv5fp2Pytq1G9GHEvWaajXIrzsYWS/l/1eCbn5UrYFPYd6lEdgf9+UbqwqCnd0HdluUctdChnRXcfgLDgt8gPvIrffd9UodSb0blyBadv9XDNf5y/KIUHsC5YjhFUV5E5IcKtavrYrciFhFS6FGwch0a6oyLYHnZfTe6yrolPSFn2/N9kAgQ+2Gbhv3a46ThlCuCG1NVcQdPtOxHFqWk/tiPvVBPf7gDqmIwNCUShcw1cbss6GfVACb6EcbmG7+1BRcVvi19z19SHdNYMTu3W7ThDicsu3PaBsN8zwGLH8tqblLDnbVUeEmsqOSNwcso70NFuYsbXqlqOrRumOI4Zbep4lp46WVRTCglsPxF1/vxs61sswjYplV69HOcJwdzTU5opOeN0N5xykXOf1WrkNkKUIke03GkIGeiNivbaK8bg5oWtmdO7MLd+C402vBucj92kQYtT8Ry1Ux4BQFIa1iFa10QetGjJkSwNCIq2QEX+5noqCGxO/pQ+cKxINbfHVne/FKK6rdxIlEF0nXFUNfb+jf1/RYzcGnHtHz/+asw93+06EUejpNsYxaoFYjT34zglvBedaDtV9KVT39QEiFemV6TbboRDXIKGrmsHx9oqe54pjYMtDRM5ENAAGNUCkUSE9kdpaH4M6EgS/LQ85j65TrlUVd7kvb6tX0htS5iXnWpdCgrOZUv4DUoZk9v4QSNgtlwfusiapF6Na2BH76IVc8auhhzAsKq6HIQ/xuuYuXEPQzxWE3X8t63n7vZTxkF0WQoappfuTZVnXWR9y/ptmfy+urrN9ywmhBKxImbRczZAxm4RdZ1kK7b+r1yUsPEE3z7bWY1gkpf4uh67FNQ2fude4qdd20TmPtn4u62/NsKF3wkLutVweEIZZMV/3MHPXb0WIQCCWrlBeDt0PSyOS/I2Ie3VVhfRjCbGGxHkSroWuwYoej+6weBSF5WVMWVt64253yzF4S074KSwK3fA+7f/rE5TvVkTr0PV+VtUg3FLj2J6xf3u4dXzN6WIax3iSq46RDsfmF0M5hfVQ3bb0+y3nWlQ0P+PWwT03Lq/XezEi5FRz/i9HNBRWgkaC/f2rcONB9xFcl7UBYZwrEUIbjCfpatip6hj/7gDBb+p9tWGiw4lLel8uTtEBwT1vN1d3dYoGAiAUhcYNP5X0oWyFWss7A8IKsz5sO+bgYMLAcO9LxM+BeYUg2qEwSMUJx9yL8oJGJHWrYWM9CSqu14YIXnmAJzkubtnvRYSAXOO+O0EDZZ9YiMg6SfMoQ76hHta0jYUujzpCAdOHsHohYbgWevh7ZrKeIr1xH0qnNVk30fHzbW2ZjkNpyipoTVhfixFeVd0Jw6wnde3cBG5O7sV2IMQaLttwBL7C0wpFFope6OGvRLRAL8Vchn3hp5DRHjQ1xuY8ZmB1WpNBiOR6qPVfM+ONIh9lSBZnGDsxysOozyBW3QEeW2tYS1jrayO0n67j7aVBM+R1BPd3Z4r7QhowO4ZkNCAUB0IZRlvRbrfGWuhh6cy7ANqyd2PErtHdGiBqSzpuwh1kV53WGAexbbM3NqEyZguyGzKeNSdUFa6nqlvXQYJ1DgO5ZjXKvWFJ+5DhveZ4LGEPbMG5Z74aUU/r5mDvuLk0OCadk0k9h/KA8Fx1UINKOef8fWXA/VEeUF+AUGTK3e6EEn9iID/W70oRBnMrpqK0IlpvndAD7Hoe8uDd0bBVYNhL4T72I4zErvl68FdHP6uhc+5MKLLBZG+Lum2wLxkncEV/Kwf1PWmSNDTDb2mCsg7yQiqO4S6brzsRBAln18hX9Pi3Q0YyuB6diA4GJe2I4BrNupnfeAI3bFnXUGLQGULq5vYIIbyr901X6+CeI4qVCA/LFYxVbVSEr0PJuR7BOW+oKF0KrXsF05ov8tw9di2ixVSNEInmHJO7ZgwB2ooIE3VCximYMK80Rcut6myzpPuqhISqNcILiZq7KRgDEg6NBRPBuS3VSWPfVWcJb9sYs3HQDtWjWFcRgGAw2VKwb63zbuj4dT0P9565o55EWACCjgrLJp5uoVuhuryp5xLcFzdGbO/eNzVHxCohb2LNaayMek4C8d0JHWfD7J9uPvCMCW8hFNnwKsxe//PmkBDLSkRL/dYQQ7/pPGTtiBZvJ6IMzZCRjirP4pBytkLGuemUoTVAIKNCPz0t/6JT1p5TrrZT7jU10N0Ib6jteBZRddowo+dm6oxhYGVfy46o7SvvgG0WzeDcS1hIliP209V99AaUeZ8h1uu7oHXe0GXQoL7egL+74XtP63hlQDl6Y4jnqEka225YLWIcjHvO7nlf0uuxOaBcnQixghxQmDeShQYYdYfF0dX17kWto791Q3mEsoYjOkP2Z8aZp8cp58AyRpUhYh03dNAdcC79dabNgYSO0ZlwqvHSEM9jUHnLZow3EjqhEzNGXZYdj82dE8q9X3oazgzW7Y2Y98kNpZ0PzU11YNvgWBHzLB2oo3GvlbPtvvMzQyYDDNWbOzFmNaJ+3P0G44xKjtfWNoBQABQd58VAYjzf0a/dOag6OloeINMwjgJgety3x0W912KNKoI8wFxPANMjOaxuxPfy3TLhF8gLhJ4AZmScfBAAAAAAAAAAAAAAAAAAAAAAAAAAAAAAAAAAAAAAAAAAAAAAAAAAAAAAAAAAAAAAAAAAAAAAAAAAAAAAAAAAAAAAAAAAAAAAAAAAAAAAAAAAAAAAAAAAAAAAAAAAAAAAAAAAAAAAAAAAAAAAAAAAAAAAAAAAAAAAAAAAAAAAAADExP8XYADFLLdkSiCFbQAAAABJRU5ErkJggg==;" parent="WIyWlLk6GJQsqaUBKTNV-1" vertex="1">
          <mxGeometry x="40" y="30" width="154.41" height="116" as="geometry" />
        </mxCell>
        <mxCell id="cKdESt3E2SooS_IdA-HN-16" value="&lt;font style=&quot;font-size: 18px;&quot;&gt;Lussandre Lederrey&lt;br&gt;Nathan Basol&lt;br&gt;Allan Maccrez&lt;/font&gt;" style="text;html=1;strokeColor=none;fillColor=none;align=center;verticalAlign=middle;whiteSpace=wrap;rounded=0;" parent="WIyWlLk6GJQsqaUBKTNV-1" vertex="1">
          <mxGeometry x="587" y="38" width="240" height="100" as="geometry" />
        </mxCell>
        <mxCell id="cKdESt3E2SooS_IdA-HN-17" value="&lt;font style=&quot;font-size: 24px;&quot;&gt;Diagramme de classe - S2.01&lt;/font&gt;" style="text;html=1;strokeColor=none;fillColor=none;align=center;verticalAlign=middle;whiteSpace=wrap;rounded=0;" parent="WIyWlLk6GJQsqaUBKTNV-1" vertex="1">
          <mxGeometry x="253" y="73" width="320" height="30" as="geometry" />
        </mxCell>
        <mxCell id="l-WufgA6ioibqLbBXE7c-5" value="" style="endArrow=none;html=1;rounded=0;exitX=1;exitY=0.5;exitDx=0;exitDy=0;entryX=-0.002;entryY=0.258;entryDx=0;entryDy=0;entryPerimeter=0;" edge="1" parent="WIyWlLk6GJQsqaUBKTNV-1" source="CcFHpQs5ojroJ-u2KoMF-50" target="cKdESt3E2SooS_IdA-HN-6">
          <mxGeometry width="50" height="50" relative="1" as="geometry">
            <mxPoint x="510" y="880" as="sourcePoint" />
            <mxPoint x="560" y="830" as="targetPoint" />
          </mxGeometry>
        </mxCell>
        <mxCell id="l-WufgA6ioibqLbBXE7c-6" value="*" style="text;html=1;strokeColor=none;fillColor=none;align=center;verticalAlign=middle;whiteSpace=wrap;rounded=0;" vertex="1" parent="WIyWlLk6GJQsqaUBKTNV-1">
          <mxGeometry x="370" y="800" width="60" height="30" as="geometry" />
        </mxCell>
        <mxCell id="l-WufgA6ioibqLbBXE7c-7" value="1" style="text;html=1;strokeColor=none;fillColor=none;align=center;verticalAlign=middle;whiteSpace=wrap;rounded=0;" vertex="1" parent="WIyWlLk6GJQsqaUBKTNV-1">
          <mxGeometry x="460" y="800" width="60" height="30" as="geometry" />
        </mxCell>
        <mxCell id="l-WufgA6ioibqLbBXE7c-8" value="" style="endArrow=none;html=1;rounded=0;exitX=0.999;exitY=0.057;exitDx=0;exitDy=0;exitPerimeter=0;entryX=0;entryY=0.5;entryDx=0;entryDy=0;" edge="1" parent="WIyWlLk6GJQsqaUBKTNV-1" source="CcFHpQs5ojroJ-u2KoMF-8" target="CcFHpQs5ojroJ-u2KoMF-59">
          <mxGeometry width="50" height="50" relative="1" as="geometry">
            <mxPoint x="510" y="360" as="sourcePoint" />
            <mxPoint x="560" y="310" as="targetPoint" />
          </mxGeometry>
        </mxCell>
        <mxCell id="l-WufgA6ioibqLbBXE7c-9" value="*" style="text;html=1;strokeColor=none;fillColor=none;align=center;verticalAlign=middle;whiteSpace=wrap;rounded=0;" vertex="1" parent="WIyWlLk6GJQsqaUBKTNV-1">
          <mxGeometry x="370" y="250" width="60" height="30" as="geometry" />
        </mxCell>
        <mxCell id="l-WufgA6ioibqLbBXE7c-10" value="1" style="text;html=1;strokeColor=none;fillColor=none;align=center;verticalAlign=middle;whiteSpace=wrap;rounded=0;" vertex="1" parent="WIyWlLk6GJQsqaUBKTNV-1">
          <mxGeometry x="440" y="250" width="60" height="30" as="geometry" />
        </mxCell>
        <mxCell id="l-WufgA6ioibqLbBXE7c-11" value="" style="endArrow=none;html=1;rounded=0;exitX=1;exitY=0.308;exitDx=0;exitDy=0;exitPerimeter=0;" edge="1" parent="WIyWlLk6GJQsqaUBKTNV-1" source="CcFHpQs5ojroJ-u2KoMF-59">
          <mxGeometry width="50" height="50" relative="1" as="geometry">
            <mxPoint x="720" y="290" as="sourcePoint" />
            <mxPoint x="790" y="275" as="targetPoint" />
            <Array as="points">
              <mxPoint x="790" y="270" />
            </Array>
          </mxGeometry>
        </mxCell>
        <mxCell id="l-WufgA6ioibqLbBXE7c-12" value="" style="endArrow=none;html=1;rounded=0;exitX=1.004;exitY=0.55;exitDx=0;exitDy=0;exitPerimeter=0;" edge="1" parent="WIyWlLk6GJQsqaUBKTNV-1" source="cKdESt3E2SooS_IdA-HN-2">
          <mxGeometry width="50" height="50" relative="1" as="geometry">
            <mxPoint x="693.5" y="648.64" as="sourcePoint" />
            <mxPoint x="790" y="650" as="targetPoint" />
          </mxGeometry>
        </mxCell>
        <mxCell id="l-WufgA6ioibqLbBXE7c-13" value="" style="endArrow=none;html=1;rounded=0;" edge="1" parent="WIyWlLk6GJQsqaUBKTNV-1">
          <mxGeometry width="50" height="50" relative="1" as="geometry">
            <mxPoint x="790" y="650" as="sourcePoint" />
            <mxPoint x="790" y="270" as="targetPoint" />
          </mxGeometry>
        </mxCell>
        <mxCell id="l-WufgA6ioibqLbBXE7c-14" value="*" style="text;html=1;strokeColor=none;fillColor=none;align=center;verticalAlign=middle;whiteSpace=wrap;rounded=0;" vertex="1" parent="WIyWlLk6GJQsqaUBKTNV-1">
          <mxGeometry x="700" y="240" width="60" height="30" as="geometry" />
        </mxCell>
        <mxCell id="l-WufgA6ioibqLbBXE7c-15" value="*" style="text;html=1;strokeColor=none;fillColor=none;align=center;verticalAlign=middle;whiteSpace=wrap;rounded=0;" vertex="1" parent="WIyWlLk6GJQsqaUBKTNV-1">
          <mxGeometry x="677" y="620" width="60" height="30" as="geometry" />
        </mxCell>
        <mxCell id="l-WufgA6ioibqLbBXE7c-16" value="" style="endArrow=none;html=1;rounded=0;exitX=0.505;exitY=0.007;exitDx=0;exitDy=0;exitPerimeter=0;entryX=0.505;entryY=1.005;entryDx=0;entryDy=0;entryPerimeter=0;" edge="1" parent="WIyWlLk6GJQsqaUBKTNV-1" source="cKdESt3E2SooS_IdA-HN-1" target="CcFHpQs5ojroJ-u2KoMF-81">
          <mxGeometry width="50" height="50" relative="1" as="geometry">
            <mxPoint x="690" y="580" as="sourcePoint" />
            <mxPoint x="600" y="530" as="targetPoint" />
          </mxGeometry>
        </mxCell>
        <mxCell id="l-WufgA6ioibqLbBXE7c-17" value="1" style="text;html=1;strokeColor=none;fillColor=none;align=center;verticalAlign=middle;whiteSpace=wrap;rounded=0;" vertex="1" parent="WIyWlLk6GJQsqaUBKTNV-1">
          <mxGeometry x="560" y="530" width="60" height="30" as="geometry" />
        </mxCell>
        <mxCell id="l-WufgA6ioibqLbBXE7c-18" value="1" style="text;html=1;strokeColor=none;fillColor=none;align=center;verticalAlign=middle;whiteSpace=wrap;rounded=0;" vertex="1" parent="WIyWlLk6GJQsqaUBKTNV-1">
          <mxGeometry x="560" y="580" width="60" height="30" as="geometry" />
        </mxCell>
      </root>
    </mxGraphModel>
  </diagram>
</mxfile>
